<svg xmlns="http://www.w3.org/2000/svg" version="1.1" xmlnsXlink="http://www.w3.org/1999/xlink" xmlnsSvgjs="http://svgjs.dev/svgjs" width="1500" height="1277" viewBox="0 0 1500 1277"><g transform="matrix(1,0,0,1,0.49826940979858136,0.5170040485829759)"><svg viewBox="0 0 290 247" data-background-color="#ffffff" preserveAspectRatio="xMidYMid meet" height="1277" width="1500" xmlns="http://www.w3.org/2000/svg" xmlnsXlink="http://www.w3.org/1999/xlink"><g id="tight-bounds" transform="matrix(1,0,0,1,-0.09633208589440301,-0.09999999999999432)"><svg viewBox="0 0 290.1926641717888 247.2" height="247.2" width="290.1926641717888"><g><svg viewBox="0 0 395.52 336.92286563839673" height="247.2" width="290.1926641717888"><g transform="matrix(1,0,0,1,0,237.87204090076187)"><svg viewBox="0 0 395.52 99.05082473763488" height="99.05082473763488" width="395.52"><g id="textblocktransform"><svg viewBox="0 0 395.52 99.05082473763488" height="99.05082473763488" width="395.52" id="textblock"><g><svg viewBox="0 0 395.52 99.05082473763488" height="99.05082473763488" width="395.52"><g transform="matrix(1,0,0,1,0,0)"><svg width="395.52" viewBox="0 -33.752066115702476 136.57 34.21206611570248" height="99.05082473763488" data-palette-color="#4d331f"><path d="M20.35-33.39L32.15 0 24.54 0 22.14-7.91 10.01-7.91 7.61 0 0 0 11.73-33.39 20.35-33.39ZM11.78-13.83L11.78-13.83 20.45-13.83 16.68-25.99Q16.28-27.35 16.08-28.24L16.08-28.24Q15.39-25.51 11.78-13.83ZM43.4-33.27L43.4 0 36.35 0 36.35-33.27 43.4-33.27ZM65.87-27.86L65.87-27.86Q61.9-27.86 59.7-24.87L59.7-24.87Q57.53-21.87 57.53-16.53L57.53-16.53Q57.53-5.41 65.87-5.41L65.87-5.41Q69.41-5.41 74.36-7.15L74.36-7.15 74.36-1.24Q70.29 0.46 65.21 0.46L65.21 0.46Q57.96 0.46 54.12-3.96 50.27-8.37 50.27-16.58L50.27-16.58Q50.2-24.37 54.48-29.11 58.77-33.85 65.87-33.75L65.87-33.75Q70.72-33.75 75.63-31.4L75.63-31.4 73.35-25.66Q68.73-27.86 65.87-27.86ZM97.59-33.39L109.4 0 101.79 0 99.39-7.91 87.25-7.91 84.85 0 77.24 0 88.97-33.39 97.59-33.39ZM89.02-13.83L89.02-13.83 97.69-13.83 93.93-25.99Q93.52-27.35 93.32-28.24L93.32-28.24Q92.64-25.51 89.02-13.83ZM123.83-27.48L120.64-27.48 120.64-17.62 122.94-17.62Q129.44-17.62 129.44-22.62L129.44-22.62Q129.44-25.13 128.09-26.3 126.73-27.48 123.83-27.48L123.83-27.48ZM113.59-33.27L124.21-33.27Q130.27-33.27 133.42-30.65 136.57-28.03 136.57-22.78 136.57-17.52 133.22-14.67 129.87-11.83 123.65-11.83L123.65-11.83 120.64-11.83 120.64 0 113.59 0 113.59-33.27Z" opacity="1" transform="matrix(1,0,0,1,0,0)" fill="#4d331f" class="wordmark-text-0" data-fill-palette-color="primary" id="text-0"></path></svg></g></svg></g></svg></g></svg></g><g transform="matrix(1,0,0,1,90.5157408,0)"><svg viewBox="0 0 214.48851839999998 214.48851839999998" height="214.48851839999998" width="214.48851839999998"><g><svg></svg></g><g id="icon-0"><svg viewBox="0 0 214.48851839999998 214.48851839999998" height="214.48851839999998" width="214.48851839999998"><g><rect width="195.02567136" height="195.02567136" x="9.731423519999993" y="9.731423519999993" fill="#e6b17e" data-fill-palette-color="accent"></rect><rect width="195.02567136" height="195.02567136" x="-5.329070518200751e-15" y="19.462847039999993" fill="#e6b17e" opacity="0.5" data-fill-palette-color="accent"></rect></g><g transform="matrix(1,0,0,1,35.799025912631464,27.80406719999999)"><svg viewBox="0 0 142.89046657473705 158.880384" height="158.880384" width="142.89046657473705"><g><svg xmlns="http://www.w3.org/2000/svg" xmlnsXlink="http://www.w3.org/1999/xlink" version="1.1" x="0" y="0" viewBox="6.243706294803314 1.5680000000000014 83.51805272573097 92.864" enable-background="new 0 0 96 96" xmlSpace="preserve" height="158.880384" width="142.89046657473705" class="icon-cg-0" data-fill-palette-color="background" id="cg-0"><path d="M15.916 94.432L15.916 94.432c-2.244 0-4.428-0.783-6.156-2.216-2.584-2.132-3.896-5.516-3.42-8.827l1.656-11.576C7.976 59.744 25.948 49.7 48.04 49.7s40.063 9.991 40.063 22.264l1.564 10.82c0.473 3.323-0.848 6.712-3.443 8.84-2.572 2.104-6.205 2.752-9.336 1.651-7.977-2.795-17.416-4.271-27.32-4.271-10.652 0-21.192 1.696-30.484 4.9C18.056 94.252 16.992 94.432 15.916 94.432z" fill="#ffffff" data-fill-palette-color="background"></path><path d="M57.952 11.532c0.008-0.032 0.024-0.056 0.024-0.088 0-5.444-4.429-9.876-9.88-9.876-5.452 0-9.876 4.428-9.876 9.876 0 0.04 0.02 0.072 0.024 0.108C22.48 12.676 9.972 26.536 9.972 43.456v15.096c0.048-0.052 0.08-0.1 0.128-0.147 7.476-7.484 21.088-12.216 35.872-12.62v-2.34c0-1.104 0.896-2 2-2s2 0.896 2 2v2.316c15.523 0.384 28.699 5.348 36 12.732V43.46C85.977 26.136 73.796 12.472 57.952 11.532zM49.977 35.444c0 1.104-0.896 2-2 2s-2-0.896-2-2v-8c0-1.104 0.896-2 2-2s2 0.896 2 2V35.444zM49.977 19.444c0 1.104-0.896 2-2 2s-2-0.896-2-2v-4c0-1.104 0.896-2 2-2s2 0.896 2 2V19.444z" fill="#ffffff" data-fill-palette-color="background"></path></svg></g></svg></g></svg></g></svg></g><g></g></svg></g><defs></defs></svg><rect width="290.1926641717888" height="247.2" fill="none" stroke="none" visibility="hidden"></rect></g></svg></g></svg>